<?xml version="1.0" encoding="UTF-8" standalone="no"?>
<!-- Generator: Adobe Illustrator 25.0.1, SVG Export Plug-In . SVG Version: 6.00 Build 0)  -->

<svg
   version="1.1"
   id="Capa_1"
   x="0px"
   y="0px"
   viewBox="0 0 3231.8864 4970.2513"
   xml:space="preserve"
   sodipodi:docname="Universidad_del_Atlántico.svg"
   width="1243.0332"
   height="1911.6351"
   inkscape:version="1.1.2 (0a00cf5339, 2022-02-04)"
   xmlns:inkscape="http://www.inkscape.org/namespaces/inkscape"
   xmlns:sodipodi="http://sodipodi.sourceforge.net/DTD/sodipodi-0.dtd"
   xmlns:xlink="http://www.w3.org/1999/xlink"
   xmlns="http://www.w3.org/2000/svg"
   xmlns:svg="http://www.w3.org/2000/svg"><defs
   id="defs75">
	

		
	</defs><sodipodi:namedview
   id="namedview73"
   pagecolor="#ffffff"
   bordercolor="#666666"
   borderopacity="1.0"
   inkscape:pageshadow="2"
   inkscape:pageopacity="0.0"
   inkscape:pagecheckerboard="0"
   showgrid="false"
   height="150.8139px"
   fit-margin-top="0"
   fit-margin-left="0"
   fit-margin-right="0"
   fit-margin-bottom="0"
   inkscape:zoom="0.13995495"
   inkscape:cx="239.36274"
   inkscape:cy="643.06407"
   inkscape:window-width="1366"
   inkscape:window-height="732"
   inkscape:window-x="1600"
   inkscape:window-y="0"
   inkscape:window-maximized="1"
   inkscape:current-layer="Capa_1"
   scale-x="2.6"
   width="2766px" />
<style
   type="text/css"
   id="style2">
	.st0{enable-background:new    ;}
	.st1{clip-path:url(#SVGID_2_);fill:#00378B;}
	.st2{clip-path:url(#SVGID_2_);fill:#EB690B;}
	.st3{clip-path:url(#SVGID_2_);fill:#FFFFFF;}
</style>
<g
   id="g66"
   transform="matrix(30.463516,0,0,31.401247,-18.123059,-47.067511)">
			<g
   id="g64">
				<g
   id="g62">
					<defs
   id="defs5">
						<rect
   id="SVGID_1_"
   x="0.59460509"
   y="1.4989058"
   width="106.09079"
   height="158.2822" />
					</defs>
					<clipPath
   id="SVGID_2_">
						<use
   xlink:href="#SVGID_1_"
   style="overflow:visible"
   id="use7"
   x="0"
   y="0"
   width="100%"
   height="100%" />
					</clipPath>
					<path
   class="st1"
   d="m 104.7977,119.89826 c -2.18298,-0.121 -7.509004,-1.114 -10.437989,-7.673 L 58.34671,31.577263 55.489716,25.183266 43.905701,52.255257 l 2.858001,6.395004 24.834992,55.611999 c 0,0 2.290008,5.32 -2.589996,5.63601 h -9.433991 v 3.12 h 15.932007 13.358002 16.907994 v -3.12 h -0.97501 z"
   clip-path="url(#SVGID_2_)"
   id="path10" />
					<path
   class="st2"
   d="m 64.66391,1.49886 v 3.119995 c 0,0 13.231994,0.4650116 13.231994,7.893006 v 60.498005 c 0,0 2.192017,18.906006 -24.680999,18.906006 -18.958008,0 -18.148987,-18.906006 -18.148987,-18.906006 V 12.511861 c 0,-7.4279945 11.722992,-7.893006 11.722992,-7.893006 V 1.49886 H 0.5949103 v 3.119995 c 0,0 11.7210087,0.4650116 11.7210087,7.893006 v 60.498005 c 0,0 0.626983,24.824997 36.951995,24.824997 32.985993,0 33.735993,-19.612992 33.735993,-24.824997 V 12.511861 c 0,-7.4279945 13.230987,-7.893006 13.230987,-7.893006 V 1.49886 Z"
   clip-path="url(#SVGID_2_)"
   id="path12" />
					<path
   class="st1"
   d="m 24.975403,109.57017 0.100006,-0.233 v -0.002 L 46.901398,58.322163 44.044403,51.927158 18.770416,111.00216 c -3.584014,8.37701 -12.1660153,8.567 -12.7640073,8.57001 h -0.032989 v 3.11899 h 7.7949833 5.593017 16.791992 v -3.11899 c -14.535004,0 -11.787018,-8.48 -11.178009,-10.002"
   clip-path="url(#SVGID_2_)"
   id="path14" />
					<path
   class="st3"
   d="m 7.461823,128.64146 v 0.24199 c -0.401001,0.022 -0.7290039,0.078 -0.9830017,0.16901 -0.2540283,0.093 -0.4780273,0.24001 -0.6679993,0.44501 -0.2340088,0.24099 -0.3870239,0.53698 -0.460022,0.89 -0.075989,0.35398 -0.1130066,0.96099 -0.1130066,1.821 v 5.99598 c 0,0.97402 0.037018,1.677 0.1130066,2.11301 0.072998,0.43201 0.2230225,0.83403 0.4490051,1.20103 0.3399963,0.558 0.7579956,0.963 1.256012,1.213 0.4969788,0.25 1.1239934,0.37599 1.8800054,0.37599 0.7329712,0 1.4329835,-0.112 2.1009825,-0.334 0.666992,-0.22299 1.222992,-0.53099 1.668,-0.92799 0.276001,-0.24699 0.479003,-0.515 0.610015,-0.80499 0.128998,-0.28804 0.214997,-0.65604 0.257996,-1.10004 0.02899,-0.289 0.04199,-0.97501 0.04199,-2.05501 v -5.92099 c 0,-0.726 -0.04098,-1.263 -0.121002,-1.608 -0.08099,-0.347 -0.230011,-0.633 -0.450989,-0.85899 -0.196014,-0.205 -0.421997,-0.35201 -0.671997,-0.44501 -0.251007,-0.091 -0.577026,-0.147 -0.979004,-0.16901 v -0.24199 h 4.882995 v 0.24199 c -0.403991,0.022 -0.73001,0.078 -0.981017,0.16901 -0.250977,0.093 -0.474976,0.24001 -0.672974,0.44501 -0.219025,0.22599 -0.369018,0.51399 -0.450012,0.864 -0.082,0.34899 -0.121002,0.88398 -0.121002,1.60299 v 6.68399 c 0,0.98801 -0.07501,1.718 -0.229004,2.18601 -0.151001,0.47104 -0.453003,0.90004 -0.904999,1.28703 -1.029999,0.88899 -2.502991,1.334 -4.415985,1.334 -1.9980168,0 -3.4700017,-0.42 -4.4160161,-1.259 -0.6130064,-0.53701 -0.9799802,-1.24401 -1.1009824,-2.11904 -0.042023,-0.30999 -0.064026,-0.87199 -0.064026,-1.68399 v -6.429 c 0,-0.726 -0.038971,-1.263 -0.1149902,-1.608 -0.078003,-0.347 -0.2309875,-0.633 -0.4559937,-0.85899 -0.1919861,-0.20501 -0.4110109,-0.35201 -0.6619874,-0.44501 -0.25,-0.091 -0.5800171,-0.147 -0.9910278,-0.16901 v -0.24199 z"
   clip-path="url(#SVGID_2_)"
   id="path16" />
					<path
   class="st3"
   d="m 20.174713,133.93536 c 0.100006,0.41201 0.149994,0.795 0.149994,1.15 v 0.17 c 0.875,-0.87999 1.916992,-1.32 3.123993,-1.32 0.904022,0 1.631012,0.21199 2.182007,0.635 0.542999,0.41501 0.815002,1.009 0.815002,1.77701 v 4.485 c 0,0.47902 0.02798,0.83001 0.08398,1.05201 0.05701,0.22301 0.166016,0.40801 0.32901,0.55501 0.196992,0.191 0.561005,0.33499 1.091004,0.43399 v 0.222 h -4.681 v -0.222 c 0.424011,-0.056 0.72699,-0.13598 0.910004,-0.237 0.18399,-0.10299 0.333008,-0.27699 0.445007,-0.52398 0.078,-0.16201 0.132996,-0.40801 0.164002,-0.735 0.03198,-0.32801 0.04797,-0.79905 0.04797,-1.41204 v -2.242 c 0,-0.77001 -0.026,-1.33299 -0.07898,-1.693 -0.05301,-0.36 -0.153015,-0.649 -0.300995,-0.86801 -0.162018,-0.24499 -0.39502,-0.43798 -0.697998,-0.57599 -0.302002,-0.137 -0.637024,-0.206 -1.002014,-0.206 -0.395996,0 -0.764008,0.077 -1.105011,0.233 -0.34198,0.155 -0.610993,0.365 -0.808991,0.63299 -0.210998,0.28301 -0.350006,0.60201 -0.417999,0.95801 -0.065,0.356 -0.099,0.94701 -0.099,1.772 v 2.073 l 0.01099,0.78301 c 0,0.47902 0.02701,0.83001 0.08402,1.05201 0.056,0.22301 0.165985,0.40801 0.328003,0.55501 0.197998,0.191 0.561005,0.33499 1.091003,0.43399 v 0.222 h -4.681 v -0.222 c 0.423981,-0.056 0.72699,-0.13499 0.910981,-0.237 0.184021,-0.10099 0.332,-0.27598 0.444,-0.52099 0.07901,-0.16201 0.133026,-0.40599 0.164001,-0.732 0.03302,-0.32699 0.048,-0.80003 0.048,-1.41803 v -2.60299 c 0,-0.72301 -0.017,-1.23002 -0.052,-1.52201 -0.03598,-0.292 -0.113984,-0.528 -0.233002,-0.711 -0.121002,-0.197 -0.264984,-0.34001 -0.433991,-0.427 -0.170013,-0.087 -0.414001,-0.142 -0.730987,-0.16501 v -0.22099 z"
   clip-path="url(#SVGID_2_)"
   id="path18" />
					<path
   class="st3"
   d="m 28.780121,134.31667 3.050995,-0.38102 v 6.099 l 0.01099,0.80301 c 0,0.47803 0.02801,0.82803 0.08402,1.04903 0.056,0.222 0.165985,0.406 0.328979,0.554 0.197022,0.19099 0.559998,0.334 1.08902,0.433 v 0.222 h -4.680023 v -0.222 c 0.424011,-0.057 0.726013,-0.135 0.911011,-0.237 0.18399,-0.101 0.330993,-0.276 0.444,-0.52201 0.077,-0.16099 0.131988,-0.40499 0.164001,-0.731 0.03201,-0.32799 0.048,-0.80002 0.048,-1.41803 v -2.60299 c 0,-0.723 -0.017,-1.23 -0.05301,-1.52201 -0.035,-0.29199 -0.113007,-0.528 -0.233002,-0.711 -0.119995,-0.19699 -0.264984,-0.33899 -0.434998,-0.42698 -0.167999,-0.088 -0.412994,-0.14301 -0.72998,-0.164 v -0.222 z m 2.207977,-4.183 c -0.276001,0 -0.505981,-0.088 -0.686981,-0.26502 -0.180023,-0.17698 -0.270996,-0.39799 -0.270996,-0.66699 0,-0.261 0.09299,-0.48199 0.276001,-0.662 0.184997,-0.181 0.411987,-0.269 0.681976,-0.269 0.27002,0 0.497009,0.088 0.683014,0.269 0.182983,0.18001 0.274994,0.401 0.274994,0.662 0,0.269 -0.09,0.49001 -0.269989,0.66699 -0.181,0.177 -0.411011,0.26502 -0.688019,0.26502"
   clip-path="url(#SVGID_2_)"
   id="path20" />
					<path
   class="st3"
   d="m 33.699097,134.09456 h 4.109008 v 0.23199 c -0.311004,0.064 -0.522003,0.13501 -0.635009,0.21201 -0.225983,0.142 -0.33899,0.366 -0.33899,0.677 0,0.191 0.035,0.413 0.105011,0.66699 0.07098,0.25402 0.199982,0.62401 0.389984,1.11 l 1.707001,4.34804 1.726013,-4.52803 c 0.255982,-0.66901 0.381989,-1.166 0.381989,-1.491 0,-0.352 -0.109986,-0.61 -0.328003,-0.772 -0.113007,-0.085 -0.321991,-0.159 -0.625,-0.22301 v -0.23199 h 2.923004 v 0.23199 c -0.394989,0.099 -0.713013,0.27501 -0.953003,0.53002 -0.303985,0.31698 -0.652984,0.98298 -1.048004,1.99899 l -2.446991,6.24004 h -0.571991 l -2.65802,-6.55803 c -0.408997,-1.00801 -0.703003,-1.61801 -0.878998,-1.83 -0.099,-0.11301 -0.207977,-0.19501 -0.328003,-0.24801 -0.119995,-0.052 -0.296997,-0.097 -0.529998,-0.13301 z"
   clip-path="url(#SVGID_2_)"
   id="path22" />
					<path
   class="st3"
   d="m 45.57721,137.33466 c -0.02899,0.346 -0.043,0.597 -0.043,0.75199 0,0.61501 0.09,1.21401 0.268006,1.80101 0.179992,0.585 0.42398,1.07303 0.734985,1.46103 0.31601,0.39499 0.709015,0.706 1.177002,0.932 0.467011,0.22599 0.959015,0.33799 1.471008,0.33799 0.380005,0 0.739991,-0.063 1.082001,-0.18998 0.341003,-0.127 0.623993,-0.30401 0.850006,-0.528 0.253998,-0.24701 0.471985,-0.64402 0.653992,-1.18804 l 0.222992,0.074 c -0.184998,0.82702 -0.576996,1.45002 -1.181,1.86902 -0.602997,0.421 -1.406982,0.63101 -2.410004,0.63101 -0.867004,0 -1.611999,-0.136 -2.233001,-0.41301 -0.621979,-0.275 -1.148987,-0.69901 -1.579987,-1.271 -0.597992,-0.79803 -0.899017,-1.77904 -0.899017,-2.94403 0,-1.589 0.568023,-2.83501 1.705017,-3.73801 0.825012,-0.65699 1.769012,-0.985 2.826996,-0.985 0.566009,0 1.087005,0.10001 1.569,0.30201 0.479004,0.19999 0.884002,0.492 1.216003,0.874 0.515991,0.592 0.774994,1.335 0.774994,2.223 H 45.57721 Z m 4.617004,-0.413 c -0.051,-0.705 -0.181,-1.25 -0.390991,-1.631 -0.189026,-0.346 -0.443024,-0.619 -0.758026,-0.82 -0.316987,-0.202 -0.654999,-0.302 -1.011994,-0.302 -0.60498,0 -1.13501,0.261 -1.587005,0.783 -0.453003,0.523 -0.722992,1.179 -0.807984,1.97 z"
   clip-path="url(#SVGID_2_)"
   id="path24" />
					<path
   class="st3"
   d="m 56.35141,135.56526 c 0.255005,-0.44501 0.540008,-0.78 0.856994,-1.005 0.585999,-0.416 1.253998,-0.625 2.002015,-0.625 0.458984,0 0.80899,0.10299 1.047973,0.307 0.221009,0.183 0.32901,0.409 0.32901,0.67701 0,0.19799 -0.065,0.36 -0.195984,0.487 -0.131012,0.12699 -0.299011,0.18998 -0.503021,0.18998 -0.23999,0 -0.446991,-0.098 -0.625,-0.295 l -0.326996,-0.36 c -0.263,-0.27499 -0.569,-0.41198 -0.923004,-0.41198 -0.477997,0 -0.852997,0.30899 -1.121979,0.929 -0.269012,0.62098 -0.401001,1.48498 -0.401001,2.59199 v 1.978 l 0.009,0.804 c 0,0.48003 0.02899,0.83102 0.08398,1.05203 0.05801,0.22299 0.166016,0.40801 0.330018,0.555 0.196991,0.191 0.559997,0.335 1.089996,0.434 v 0.222 h -4.679016 v -0.222 c 0.423004,-0.056 0.723999,-0.13499 0.910003,-0.237 0.182007,-0.101 0.332001,-0.276 0.442994,-0.52099 0.078,-0.16201 0.132995,-0.40702 0.165008,-0.73201 0.03101,-0.327 0.047,-0.80002 0.047,-1.41803 v -2.603 c 0,-0.72299 -0.017,-1.23 -0.05301,-1.522 -0.03497,-0.292 -0.112976,-0.528 -0.231994,-0.711 -0.119995,-0.19699 -0.265992,-0.338 -0.434998,-0.427 -0.169983,-0.087 -0.412994,-0.142 -0.72998,-0.16401 v -0.222 l 2.728973,-0.38099 c 0.121002,0.634 0.183014,1.177 0.183014,1.63"
   clip-path="url(#SVGID_2_)"
   id="path26" />
					<path
   class="st3"
   d="m 61.811401,143.0956 v -2.99604 h 0.168 c 0.197021,0.734 0.442993,1.32003 0.739013,1.75803 0.543,0.798 1.177002,1.196 1.902985,1.196 0.444,0 0.828003,-0.135 1.152008,-0.401 0.351013,-0.29801 0.527008,-0.718 0.527008,-1.261 0,-0.445 -0.127014,-0.83403 -0.381012,-1.16603 -0.139007,-0.176 -0.317993,-0.338 -0.532989,-0.486 -0.214997,-0.149 -0.575012,-0.356 -1.083008,-0.625 -0.888001,-0.474 -1.47699,-0.869 -1.77301,-1.186 -0.422974,-0.452 -0.63498,-0.97501 -0.63498,-1.56799 0,-0.63501 0.212983,-1.18201 0.635987,-1.64101 0.485992,-0.522 1.132995,-0.784 1.937011,-0.784 0.362,0 0.696991,0.064 1.006989,0.19 l 0.359009,0.159 c 0.11499,0.042 0.212005,0.064 0.296997,0.064 0.134002,0 0.260986,-0.10601 0.381012,-0.317 h 0.211975 l 0.115997,2.403 h -0.220978 c -0.07901,-0.33899 -0.16101,-0.609 -0.248016,-0.816 -0.08798,-0.20399 -0.212982,-0.40201 -0.375,-0.59199 -0.217987,-0.26801 -0.471985,-0.47802 -0.759979,-0.63001 -0.289002,-0.153 -0.574005,-0.228 -0.856018,-0.228 -0.393982,0 -0.729981,0.14299 -1.007996,0.428 -0.278992,0.28599 -0.416992,0.63901 -0.416992,1.05501 0,0.345 0.125,0.65799 0.376007,0.93699 0.248993,0.27899 0.632996,0.534 1.155975,0.767 l 1.120026,0.50999 c 0.668976,0.30301 1.168976,0.68001 1.5,1.13201 0.330994,0.453 0.494995,0.985 0.494995,1.599 0,0.74103 -0.238007,1.35603 -0.720001,1.84303 -0.550019,0.565 -1.256012,0.847 -2.117005,0.847 -0.466003,0 -0.938995,-0.091 -1.420013,-0.27499 -0.30899,-0.12001 -0.496979,-0.18901 -0.559998,-0.207 -0.064,-0.018 -0.145996,-0.026 -0.244995,-0.026 -0.247009,0 -0.432007,0.10599 -0.561004,0.31701 h -0.168 z"
   clip-path="url(#SVGID_2_)"
   id="path28" />
					<path
   class="st3"
   d="m 69.080902,134.31667 3.050995,-0.38102 v 6.099 l 0.01001,0.80301 c 0,0.47803 0.02801,0.82803 0.08499,1.04903 0.05502,0.222 0.166016,0.406 0.328003,0.554 0.197022,0.19099 0.559998,0.334 1.08902,0.433 v 0.222 h -4.680023 v -0.222 c 0.425018,-0.057 0.726013,-0.135 0.912018,-0.237 0.182983,-0.101 0.332,-0.276 0.442993,-0.52201 0.078,-0.16099 0.132995,-0.40499 0.164001,-0.731 0.03299,-0.32799 0.048,-0.80002 0.048,-1.41803 v -2.60299 c 0,-0.723 -0.01602,-1.23 -0.05301,-1.52201 -0.035,-0.29199 -0.113007,-0.528 -0.233002,-0.711 -0.118988,-0.19699 -0.264984,-0.33899 -0.433991,-0.42698 -0.167999,-0.088 -0.412994,-0.14301 -0.730011,-0.164 v -0.222 z m 2.208008,-4.183 c -0.276001,0 -0.506989,-0.088 -0.687988,-0.26502 -0.179017,-0.17698 -0.27002,-0.39799 -0.27002,-0.66699 0,-0.261 0.09201,-0.48199 0.276001,-0.662 0.184998,-0.181 0.411011,-0.269 0.682007,-0.269 0.270996,0 0.496002,0.088 0.682007,0.269 0.182983,0.18001 0.276001,0.401 0.276001,0.662 0,0.269 -0.091,0.49001 -0.270996,0.66699 -0.181,0.177 -0.411011,0.26502 -0.687012,0.26502"
   clip-path="url(#SVGID_2_)"
   id="path30" />
					<path
   class="st3"
   d="m 82.121521,143.45628 c -0.07001,-0.35299 -0.105011,-0.72699 -0.105011,-1.12199 -0.522003,0.338 -1.013001,0.58301 -1.475006,0.729 -0.462006,0.15 -0.958008,0.223 -1.485993,0.223 -1.070007,0 -1.986999,-0.321 -2.75,-0.963 -0.485015,-0.41001 -0.859008,-0.924 -1.119995,-1.54103 -0.261016,-0.618 -0.391998,-1.29399 -0.391998,-2.028 0,-0.776 0.141998,-1.495 0.423004,-2.155 0.281983,-0.661 0.677979,-1.209 1.185974,-1.647 0.802002,-0.678 1.758026,-1.017 2.864014,-1.017 0.536011,0 0.993988,0.078 1.375,0.23401 0.381012,0.15399 0.825012,0.43599 1.332001,0.84599 v -3.914 c 0,-0.76799 -0.127991,-1.31999 -0.382996,-1.657 -0.256012,-0.33901 -0.679016,-0.508 -1.266998,-0.508 v -0.25399 l 3.250976,-0.41201 v 12.256 c 0,0.79604 0.127015,1.36403 0.380005,1.70203 0.253998,0.33799 0.673005,0.507 1.261017,0.507 v 0.265 z m -0.14801,-4.93502 c 0,-0.982 -0.04199,-1.71801 -0.126007,-2.209 -0.08499,-0.48999 -0.234986,-0.89 -0.453003,-1.20099 -0.190979,-0.26902 -0.444,-0.483 -0.765991,-0.64701 -0.319001,-0.162 -0.647004,-0.242 -0.985016,-0.242 -0.751984,0 -1.401978,0.352 -1.950989,1.058 -0.330994,0.42399 -0.588989,0.92801 -0.777008,1.51401 -0.184998,0.58599 -0.278992,1.18998 -0.278992,1.81099 0,0.608 0.08899,1.20201 0.264008,1.785 0.175995,0.58203 0.415985,1.08203 0.717987,1.49803 0.527008,0.72099 1.173004,1.08099 1.941009,1.08099 0.363983,0 0.71399,-0.092 1.044007,-0.276 0.328979,-0.183 0.597991,-0.43699 0.802002,-0.76199 0.210998,-0.339 0.356994,-0.758 0.441986,-1.25504 0.08401,-0.49699 0.126007,-1.21499 0.126007,-2.15499"
   clip-path="url(#SVGID_2_)"
   id="path32" />
					<path
   class="st3"
   d="m 95.080109,142.06929 0.179992,0.105 c -0.253997,0.74301 -0.837005,1.112 -1.748993,1.112 -0.501007,0 -0.917999,-0.12301 -1.25,-0.36899 -0.220001,-0.16301 -0.446991,-0.44602 -0.679016,-0.84801 -0.474975,0.423 -0.829986,0.702 -1.071991,0.836 -0.458008,0.254 -0.993988,0.381 -1.600006,0.381 -0.777984,0 -1.395996,-0.187 -1.85199,-0.56 -0.455993,-0.375 -0.682983,-0.88001 -0.682983,-1.515 0,-0.58603 0.185974,-1.07703 0.559998,-1.47203 0.210998,-0.219 0.454986,-0.394 0.730987,-0.525 0.274994,-0.12899 0.674011,-0.263 1.196015,-0.397 0.61499,-0.155 1.067993,-0.28599 1.360992,-0.39101 0.292999,-0.10699 0.537994,-0.233 0.736999,-0.38198 0.225007,-0.16201 0.381989,-0.35302 0.466004,-0.57201 0.08398,-0.21899 0.125976,-0.522 0.125976,-0.911 0,-0.826 -0.154998,-1.429 -0.463989,-1.811 -0.143005,-0.176 -0.324981,-0.317 -0.54599,-0.423 -0.223999,-0.105 -0.453003,-0.15799 -0.695007,-0.15799 -0.290009,0 -0.546997,0.074 -0.772003,0.22099 -0.22699,0.14799 -0.397004,0.354 -0.509003,0.614 l -0.264008,0.615 c -0.141998,0.332 -0.396972,0.498 -0.761993,0.498 -0.240997,0 -0.442993,-0.08 -0.60498,-0.23899 -0.163025,-0.15801 -0.243012,-0.35801 -0.243012,-0.59801 0,-0.359 0.253998,-0.663 0.764008,-0.911 0.274994,-0.126 0.615997,-0.231 1.022003,-0.31199 0.406982,-0.081 0.806,-0.12201 1.195984,-0.12201 0.437011,0 0.893005,0.057 1.368011,0.169 0.471985,0.114 0.868988,0.25901 1.186005,0.43399 0.459991,0.26101 0.746979,0.60102 0.860992,1.01801 0.05499,0.211 0.08499,0.569 0.08499,1.069 v 3.91901 c 0,0.66401 0.02801,1.11502 0.08401,1.35502 0.119995,0.50099 0.410003,0.75299 0.868988,0.75299 0.21701,0 0.388,-0.04 0.511993,-0.11699 0.124024,-0.077 0.270996,-0.233 0.44101,-0.466 m -3.506989,-4.17303 c -0.378998,0.318 -0.798004,0.597 -1.256012,0.837 -0.514008,0.27499 -0.868988,0.483 -1.066009,0.62399 -0.197998,0.14301 -0.375977,0.31202 -0.537995,0.50901 -0.329986,0.40899 -0.496002,0.88701 -0.496002,1.43004 0,0.46598 0.127991,0.84999 0.38501,1.15399 0.255981,0.304 0.582,0.455 0.976989,0.455 0.345002,0 0.670014,-0.107 0.976014,-0.32201 0.305999,-0.21599 0.536987,-0.504 0.691986,-0.864 0.218017,-0.472 0.326019,-1.15702 0.326019,-2.05502 z"
   clip-path="url(#SVGID_2_)"
   id="path34" />
					<path
   class="st3"
   d="m 103.1752,143.45628 c -0.071,-0.35299 -0.10599,-0.72699 -0.10599,-1.12199 -0.52002,0.338 -1.013,0.58301 -1.475,0.729 -0.46201,0.15 -0.957,0.223 -1.48599,0.223 -1.070012,0 -1.987004,-0.321 -2.750005,-0.963 -0.485015,-0.41001 -0.859008,-0.924 -1.119018,-1.54103 -0.261994,-0.618 -0.392975,-1.29399 -0.392975,-2.028 0,-0.776 0.140991,-1.495 0.422974,-2.155 0.282012,-0.661 0.677002,-1.209 1.186004,-1.647 0.802002,-0.678 1.759003,-1.017 2.866,-1.017 0.535,0 0.992,0.078 1.37301,0.23401 0.38199,0.15399 0.82499,0.43599 1.33399,0.84599 v -3.914 c 0,-0.76799 -0.13001,-1.31999 -0.38498,-1.657 -0.25501,-0.33901 -0.67801,-0.508 -1.267,-0.508 v -0.25399 l 3.25098,-0.41201 v 12.256 c 0,0.79604 0.12701,1.36403 0.38,1.70203 0.254,0.33799 0.67401,0.507 1.26102,0.507 v 0.265 z m -0.147,-4.93502 c 0,-0.982 -0.043,-1.71801 -0.12799,-2.209 -0.084,-0.48999 -0.23401,-0.89 -0.452,-1.20099 -0.19101,-0.26902 -0.44501,-0.483 -0.767,-0.64701 -0.319,-0.162 -0.647,-0.242 -0.98501,-0.242 -0.752993,0 -1.402987,0.352 -1.950991,1.058 -0.329987,0.42399 -0.58899,0.92801 -0.777008,1.51401 -0.184998,0.58599 -0.278992,1.18998 -0.278992,1.81099 0,0.608 0.08899,1.20201 0.264984,1.785 0.176025,0.58203 0.415009,1.08203 0.717011,1.49803 0.528015,0.72099 1.174011,1.08099 1.941006,1.08099 0.36399,0 0.71399,-0.092 1.04401,-0.276 0.33099,-0.183 0.599,-0.43699 0.802,-0.76199 0.211,-0.339 0.35797,-0.758 0.44199,-1.25504 0.085,-0.49699 0.12799,-1.21499 0.12799,-2.15499"
   clip-path="url(#SVGID_2_)"
   id="path36" />
					<path
   class="st3"
   d="m 12.397004,156.59599 c -0.052,-0.265 -0.07999,-0.548 -0.07999,-0.847 -0.393006,0.256 -0.765015,0.439 -1.115021,0.552 -0.348999,0.11001 -0.722992,0.168 -1.121002,0.168 -0.8109746,0 -1.5019841,-0.24301 -2.0769963,-0.72799 -0.3670049,-0.30901 -0.6510015,-0.69701 -0.8479924,-1.16501 -0.1959839,-0.466 -0.2950134,-0.97701 -0.2950134,-1.53101 0,-0.58699 0.1060181,-1.12999 0.3210144,-1.62799 0.2109985,-0.49901 0.5090027,-0.91301 0.8930058,-1.24299 0.6069946,-0.513 1.32901,-0.76902 2.1650089,-0.76902 0.403991,0 0.750976,0.059 1.039001,0.17601 0.28598,0.11699 0.621979,0.33001 1.006989,0.64 v -2.958 c 0,-0.579 -0.09799,-0.997 -0.291016,-1.251 -0.192993,-0.25399 -0.513001,-0.38301 -0.957001,-0.38301 v -0.19299 l 2.455017,-0.31101 v 9.25901 c 0,0.6 0.09699,1.03 0.287995,1.28599 0.192993,0.25501 0.51001,0.38301 0.950989,0.38301 v 0.2 z m -0.110992,-3.727 c 0,-0.741 -0.03201,-1.29801 -0.09702,-1.66899 -0.06299,-0.36901 -0.177002,-0.67301 -0.340973,-0.90702 -0.144012,-0.20298 -0.336029,-0.36499 -0.57901,-0.487 -0.242004,-0.125 -0.48999,-0.18499 -0.744995,-0.18499 -0.5670163,0 -1.0590207,0.267 -1.4739987,0.8 -0.2480164,0.32001 -0.4450073,0.701 -0.585022,1.14301 -0.1419983,0.444 -0.2109985,0.89999 -0.2109985,1.36799 0,0.459 0.065002,0.909 0.197998,1.349 0.1340027,0.44 0.3130188,0.817 0.5429993,1.132 0.3970032,0.543 0.8870239,0.81501 1.4660029,0.81501 0.276001,0 0.539002,-0.069 0.789002,-0.20801 0.248993,-0.138 0.450012,-0.33 0.604004,-0.57601 0.161011,-0.25599 0.272003,-0.57099 0.334991,-0.94699 0.065,-0.376 0.09702,-0.918 0.09702,-1.628"
   clip-path="url(#SVGID_2_)"
   id="path38" />
					<path
   class="st3"
   d="m 16.869293,151.97299 c -0.02197,0.261 -0.03299,0.45101 -0.03299,0.568 0,0.464 0.069,0.91799 0.205017,1.359 0.133972,0.444 0.319977,0.81099 0.552002,1.105 0.241974,0.299 0.534973,0.533 0.889984,0.70399 0.35199,0.17101 0.725006,0.25602 1.111999,0.25602 0.286011,0 0.559998,-0.048 0.817994,-0.14501 0.256012,-0.096 0.470001,-0.22799 0.641021,-0.399 0.191986,-0.188 0.356995,-0.48601 0.493988,-0.897 l 0.168,0.057 c -0.136994,0.623 -0.434998,1.094 -0.890992,1.411 -0.456024,0.317 -1.063995,0.477 -1.822021,0.477 -0.654999,0 -1.21698,-0.10501 -1.685974,-0.31201 -0.470001,-0.209 -0.866028,-0.528 -1.19101,-0.961 -0.455992,-0.60099 -0.680998,-1.34399 -0.680998,-2.222 0,-1.20099 0.429992,-2.14199 1.287993,-2.82599 0.622986,-0.49501 1.335998,-0.74301 2.135986,-0.74301 0.426026,0 0.820008,0.075 1.183014,0.22802 0.364014,0.151 0.669006,0.37199 0.920014,0.65998 0.389984,0.44802 0.583984,1.00801 0.583984,1.68001 z m 3.487,-0.31199 c -0.03598,-0.53301 -0.13498,-0.944 -0.293976,-1.23101 -0.144013,-0.263 -0.335022,-0.46901 -0.572998,-0.621 -0.238007,-0.15201 -0.493012,-0.228 -0.766022,-0.228 -0.455993,0 -0.854004,0.19699 -1.196991,0.59301 -0.342987,0.39299 -0.54599,0.88899 -0.609009,1.487 z"
   clip-path="url(#SVGID_2_)"
   id="path40" />
					<path
   class="st3"
   d="m 22.645416,145.37289 2.303986,-0.28801 v 8.92202 l 0.008,0.60699 c 0,0.36299 0.02002,0.627 0.06302,0.795 0.043,0.16901 0.125,0.308 0.247986,0.42 0.149017,0.144 0.425018,0.252 0.824005,0.328 v 0.168 h -3.53601 v -0.168 c 0.320007,-0.043 0.550018,-0.103 0.689025,-0.18001 0.136994,-0.077 0.250977,-0.20799 0.335999,-0.39599 0.05798,-0.122 0.099,-0.30699 0.123993,-0.555 0.02399,-0.24701 0.03598,-0.60501 0.03598,-1.074 v -6.27001 c 0,-0.54299 -0.01398,-0.927 -0.03998,-1.14999 -0.02801,-0.22301 -0.08502,-0.406 -0.175995,-0.543 -0.09201,-0.15001 -0.200012,-0.256 -0.328003,-0.32001 -0.128021,-0.064 -0.314026,-0.10398 -0.552002,-0.11898 v -0.17701 z"
   clip-path="url(#SVGID_2_)"
   id="path42" />
					<path
   class="st3"
   d="m 45.016998,159.59068 h -6.957977 v -0.24499 c 0.627991,-0.056 1.067993,-0.161 1.314972,-0.316 0.436005,-0.277 0.655029,-0.658 0.655029,-1.145 0,-0.289 -0.09802,-0.67799 -0.29602,-1.16499 l -0.178986,-0.44501 -1.016998,-2.49899 h -4.660004 l -0.552002,1.46099 -0.265014,0.657 c -0.315979,0.77699 -0.473999,1.387 -0.473999,1.831 0,0.263 0.056,0.50599 0.174011,0.731 0.115997,0.227 0.273987,0.41 0.470001,0.552 0.277008,0.19 0.628998,0.30299 1.061005,0.338 v 0.24499 H 29.54602 v -0.24499 c 0.373993,-0.021 0.701996,-0.112 0.983979,-0.275 0.282013,-0.162 0.559021,-0.42401 0.825012,-0.78399 0.227997,-0.289 0.449005,-0.66101 0.661987,-1.11701 0.216004,-0.455 0.5,-1.139 0.854004,-2.05 l 3.877014,-9.98601 h 0.60199 l 4.608002,11.13101 c 0.346008,0.84099 0.621002,1.44001 0.825989,1.80001 0.20401,0.35998 0.426025,0.63199 0.666015,0.81599 0.169983,0.127 0.363007,0.224 0.583985,0.28999 0.218017,0.067 0.54602,0.12601 0.983001,0.17501 z m -6.648986,-6.24899 -2.226014,-5.48601 -2.095001,5.48601 z"
   clip-path="url(#SVGID_2_)"
   id="path44" />
					<path
   class="st3"
   d="m 47.825012,150.58868 h 2.687989 v 0.40101 h -2.687989 v 6.164 c 0,0.742 0.125,1.27099 0.380005,1.589 0.134003,0.176 0.307984,0.314 0.526978,0.412 0.218017,0.1 0.453003,0.14901 0.707,0.14901 0.318024,0 0.580017,-0.066 0.792023,-0.19501 0.210999,-0.131 0.442993,-0.37 0.696991,-0.715 l 0.158997,0.137 c -0.234986,0.42401 -0.561005,0.738 -0.980988,0.943 -0.42102,0.204 -0.943024,0.306 -1.572021,0.306 -0.833985,0 -1.440003,-0.162 -1.820984,-0.487 -0.205994,-0.169 -0.338013,-0.371 -0.403992,-0.608 -0.06201,-0.238 -0.09403,-0.662 -0.09403,-1.27701 v -6.41799 h -1.132995 v -0.17 c 0.459015,-0.14701 0.882995,-0.43199 1.270019,-0.85601 0.235993,-0.26199 0.422974,-0.52198 0.566986,-0.77899 0.140015,-0.25799 0.276001,-0.591 0.403992,-1 l 0.106018,-0.351 h 0.395996 v 2.75499 z"
   clip-path="url(#SVGID_2_)"
   id="path46" />
					<path
   class="st3"
   d="m 50.822113,145.09169 3.048981,-0.382 v 11.811 l 0.01102,0.804 c 0,0.48 0.02899,0.831 0.08398,1.053 0.056,0.222 0.166016,0.408 0.330017,0.556 0.196991,0.19 0.559998,0.335 1.088989,0.43299 v 0.224 h -4.679992 v -0.224 c 0.424011,-0.056 0.726013,-0.13499 0.91101,-0.237 0.182984,-0.10299 0.332001,-0.27699 0.444,-0.52299 0.077,-0.16299 0.131989,-0.40801 0.164002,-0.735 0.03299,-0.328 0.04797,-0.80299 0.04797,-1.42301 v -8.30099 c 0,-0.71899 -0.017,-1.22701 -0.05399,-1.522 -0.035,-0.29599 -0.112,-0.536 -0.230988,-0.72 -0.121002,-0.197 -0.266021,-0.33899 -0.436004,-0.422 -0.169006,-0.085 -0.412994,-0.138 -0.729004,-0.159 z"
   clip-path="url(#SVGID_2_)"
   id="path48" />
					<path
   class="st3"
   d="m 65.023102,158.5629 0.179993,0.10499 c -0.253998,0.74201 -0.836976,1.11299 -1.747986,1.11299 -0.502014,0 -0.919007,-0.125 -1.252014,-0.37098 -0.217988,-0.16201 -0.444001,-0.44501 -0.677002,-0.847 -0.474976,0.42299 -0.830994,0.70199 -1.071991,0.836 -0.459992,0.25299 -0.992981,0.38198 -1.60199,0.38198 -0.778015,0 -1.39502,-0.18699 -1.851013,-0.56099 -0.454987,-0.375 -0.682984,-0.88 -0.682984,-1.515 0,-0.58599 0.186981,-1.076 0.561005,-1.472 0.211975,-0.219 0.454986,-0.39401 0.730987,-0.525 0.273987,-0.12999 0.673005,-0.263 1.196015,-0.39499 0.613983,-0.15702 1.067993,-0.28801 1.360992,-0.39301 0.292999,-0.10699 0.537995,-0.23199 0.737,-0.382 0.225006,-0.16201 0.380005,-0.353 0.464996,-0.57199 0.08499,-0.21901 0.126984,-0.52201 0.126984,-0.91001 0,-0.82699 -0.154999,-1.43001 -0.465973,-1.811 -0.141022,-0.177 -0.323029,-0.318 -0.544007,-0.42501 -0.222992,-0.10499 -0.455017,-0.15798 -0.695007,-0.15798 -0.289001,0 -0.548004,0.075 -0.77301,0.222 -0.225983,0.14898 -0.394989,0.35299 -0.509003,0.61499 l -0.263977,0.61399 c -0.141022,0.332 -0.39502,0.49801 -0.763001,0.49801 -0.24002,0 -0.441009,-0.079 -0.602996,-0.238 -0.162018,-0.15901 -0.244019,-0.359 -0.244019,-0.599 0,-0.359 0.253998,-0.663 0.764008,-0.91 0.276001,-0.127 0.617004,-0.231 1.023986,-0.313 0.406006,-0.081 0.805024,-0.121 1.193024,-0.121 0.437988,0 0.892975,0.056 1.367981,0.169 0.473999,0.11299 0.869995,0.25701 1.188996,0.43399 0.459014,0.261 0.745025,0.60001 0.858001,1.01702 0.05701,0.21199 0.08502,0.56799 0.08502,1.069 v 3.91899 c 0,0.664 0.02899,1.115 0.08499,1.354 0.119995,0.50099 0.410003,0.754 0.868988,0.754 0.218017,0 0.390014,-0.04 0.513,-0.11701 0.123993,-0.078 0.270996,-0.23399 0.440003,-0.46598 m -3.505005,-4.17301 c -0.379974,0.318 -0.799988,0.597 -1.256989,0.83699 -0.514007,0.27501 -0.868988,0.48401 -1.066009,0.625 -0.196991,0.14 -0.375977,0.31002 -0.539002,0.50801 -0.330993,0.40999 -0.496002,0.88601 -0.496002,1.43 0,0.466 0.128998,0.85 0.38501,1.153 0.256989,0.305 0.583008,0.45601 0.97699,0.45601 0.345001,0 0.67102,-0.10701 0.97702,-0.323 0.306,-0.21601 0.53598,-0.50301 0.690979,-0.86301 0.218018,-0.47301 0.328003,-1.157 0.328003,-2.05501 z m -2.446991,-5.39 1.937988,-2.891 h 1.970001 l -3.388,2.891 z"
   clip-path="url(#SVGID_2_)"
   id="path50" />
					<path
   class="st3"
   d="m 68.230316,150.4296 c 0.100983,0.41198 0.148987,0.79399 0.148987,1.14898 v 0.17101 c 0.875,-0.88001 1.916992,-1.31999 3.123016,-1.31999 0.905976,0 1.631989,0.21099 2.182984,0.63398 0.544006,0.41701 0.816009,1.00901 0.816009,1.778 v 4.48401 c 0,0.47901 0.02899,0.831 0.08301,1.052 0.05698,0.223 0.166992,0.40799 0.330994,0.556 0.196991,0.19001 0.559997,0.335 1.088989,0.43399 v 0.22301 H 71.32431 v -0.22301 c 0.424988,-0.057 0.725983,-0.136 0.911011,-0.23799 0.182984,-0.102 0.332001,-0.27701 0.444,-0.524 0.077,-0.162 0.131989,-0.408 0.164002,-0.735 0.03299,-0.328 0.04797,-0.798 0.04797,-1.412 v -2.243 c 0,-0.768 -0.026,-1.332 -0.07999,-1.692 -0.05301,-0.36 -0.152008,-0.64799 -0.300995,-0.867 -0.162018,-0.247 -0.393005,-0.43799 -0.697022,-0.57599 -0.302978,-0.138 -0.638,-0.207 -1.003997,-0.207 -0.392975,0 -0.763001,0.078 -1.102997,0.23298 -0.34198,0.15601 -0.612,0.36602 -0.808991,0.636 -0.212005,0.28101 -0.351013,0.60001 -0.416992,0.95501 -0.06601,0.35701 -0.101013,0.947 -0.101013,1.77301 v 2.07199 l 0.01001,0.783 c 0,0.47901 0.02899,0.831 0.086,1.053 0.05701,0.222 0.165009,0.40699 0.328003,0.555 0.197998,0.19001 0.561981,0.335 1.091004,0.43399 v 0.22301 h -4.682007 v -0.22301 c 0.424011,-0.057 0.727997,-0.13499 0.911987,-0.237 0.182007,-0.10099 0.332001,-0.276 0.445007,-0.52198 0.077,-0.16101 0.132996,-0.40601 0.162995,-0.73201 0.03201,-0.327 0.04901,-0.799 0.04901,-1.417 v -2.60301 c 0,-0.72299 -0.01901,-1.23098 -0.05301,-1.52199 -0.03598,-0.292 -0.113007,-0.529 -0.231995,-0.712 -0.121002,-0.196 -0.265991,-0.338 -0.436004,-0.426 -0.169983,-0.088 -0.412995,-0.143 -0.729981,-0.165 v -0.221 z"
   clip-path="url(#SVGID_2_)"
   id="path52" />
					<path
   class="st3"
   d="m 79.244995,150.58868 h 2.690002 v 0.40101 h -2.690002 v 6.164 c 0,0.742 0.127014,1.27099 0.382019,1.589 0.131989,0.176 0.307007,0.314 0.526001,0.412 0.218994,0.1 0.45398,0.14901 0.707001,0.14901 0.316986,0 0.580993,-0.066 0.791992,-0.19501 0.210998,-0.131 0.444,-0.37 0.696991,-0.715 l 0.15802,0.137 c -0.233002,0.42401 -0.559998,0.738 -0.980011,0.943 -0.420013,0.204 -0.942993,0.306 -1.572998,0.306 -0.832001,0 -1.437988,-0.162 -1.820007,-0.487 -0.20401,-0.169 -0.33899,-0.371 -0.402985,-0.608 -0.06302,-0.238 -0.09403,-0.662 -0.09403,-1.27701 v -6.41799 h -1.132995 v -0.17 c 0.458008,-0.14701 0.882019,-0.43199 1.270019,-0.85601 0.234986,-0.26199 0.423004,-0.52198 0.565979,-0.77899 0.141022,-0.25799 0.276001,-0.591 0.404022,-1 l 0.105988,-0.351 h 0.394989 v 2.75499 z"
   clip-path="url(#SVGID_2_)"
   id="path54" />
					<path
   class="st3"
   d="m 82.243011,150.81079 3.049012,-0.381 v 6.099 l 0.01199,0.80201 c 0,0.47799 0.02698,0.82798 0.08398,1.04899 0.05701,0.22299 0.166016,0.407 0.328003,0.55499 0.197998,0.19001 0.562012,0.334 1.091004,0.43201 v 0.224 h -4.681 v -0.224 c 0.424011,-0.056 0.72699,-0.13499 0.910004,-0.23601 0.186004,-0.10199 0.332,-0.27598 0.445984,-0.52198 0.07703,-0.16201 0.133026,-0.40601 0.164001,-0.73201 0.03302,-0.327 0.048,-0.799 0.048,-1.417 v -2.60299 c 0,-0.724 -0.01801,-1.23101 -0.05398,-1.52201 -0.035,-0.292 -0.112,-0.529 -0.231995,-0.712 -0.121002,-0.196 -0.266022,-0.338 -0.434998,-0.427 -0.169006,-0.087 -0.413024,-0.142 -0.730011,-0.163 z m 2.208008,-4.183 c -0.277008,0 -0.505005,-0.089 -0.687011,-0.265 -0.182007,-0.177 -0.270997,-0.399 -0.270997,-0.668 0,-0.261 0.091,-0.481 0.276001,-0.662 0.184998,-0.179 0.411988,-0.269 0.682007,-0.269 0.270996,0 0.496979,0.09 0.681977,0.269 0.184021,0.181 0.276001,0.401 0.276001,0.662 0,0.269 -0.091,0.491 -0.270997,0.668 -0.182006,0.176 -0.41098,0.265 -0.686981,0.265"
   clip-path="url(#SVGID_2_)"
   id="path56" />
					<path
   class="st3"
   d="m 95.300598,157.58778 0.212006,0.075 c -0.24701,0.748 -0.625,1.28799 -1.134003,1.61999 -0.509003,0.33099 -1.207001,0.498 -2.096985,0.498 -1.424011,0 -2.544006,-0.42199 -3.356995,-1.27099 -0.791015,-0.83301 -1.186004,-1.88501 -1.186004,-3.15601 0,-0.61999 0.109985,-1.235 0.328979,-1.843 0.218018,-0.607 0.518006,-1.125 0.899018,-1.55699 0.432006,-0.49401 0.958984,-0.87101 1.583984,-1.13401 0.625,-0.26001 1.309021,-0.39 2.050018,-0.39 1.02298,0 1.824005,0.22899 2.402985,0.68799 0.354004,0.28202 0.528992,0.593 0.528992,0.93201 0,0.22501 -0.07398,0.41499 -0.220978,0.56599 -0.149017,0.153 -0.328003,0.22802 -0.540009,0.22802 -0.458984,0 -0.798004,-0.336 -1.018005,-1.00602 -0.09799,-0.31099 -0.177978,-0.52299 -0.236999,-0.63499 -0.06,-0.11301 -0.147004,-0.213 -0.259003,-0.297 -0.218994,-0.16301 -0.484986,-0.244 -0.803986,-0.244 -0.415008,0 -0.799011,0.117 -1.151001,0.35 -0.309997,0.204 -0.571014,0.46 -0.785003,0.768 -0.217011,0.307 -0.404999,0.693 -0.566987,1.16 -0.247009,0.712 -0.369018,1.412 -0.369018,2.097 0,0.628 0.113006,1.242 0.338013,1.84199 0.225982,0.60001 0.531982,1.10201 0.919982,1.50301 0.606995,0.63699 1.317017,0.95399 2.136017,0.95399 0.677002,0 1.235993,-0.21499 1.678986,-0.64599 0.226013,-0.226 0.442017,-0.593 0.645996,-1.10201"
   clip-path="url(#SVGID_2_)"
   id="path58" />
					<path
   class="st3"
   d="m 96.761322,155.11989 c 0,-1.142 0.423981,-2.164 1.271973,-3.06101 1.029999,-1.08599 2.262025,-1.62899 3.696015,-1.62899 1.43399,0 2.66101,0.543 3.686,1.62899 0.84601,0.905 1.26999,1.92801 1.26999,3.07201 0,1.13 -0.40201,2.136 -1.20801,3.01801 -0.98699,1.08799 -2.23699,1.63198 -3.74798,1.63198 -1.51199,0 -2.765015,-0.54399 -3.760987,-1.63198 -0.387024,-0.42402 -0.685028,-0.89602 -0.893006,-1.41901 -0.209014,-0.521 -0.313995,-1.058 -0.313995,-1.61 m 1.928986,-0.121 c 0,1.22799 0.273986,2.26699 0.825012,3.121 0.621,0.951 1.37997,1.42801 2.27798,1.42801 0.379,0 0.75101,-0.10701 1.112,-0.31801 0.35801,-0.211 0.67099,-0.507 0.931,-0.888 0.276,-0.39501 0.499,-0.89099 0.667,-1.487 0.169,-0.595 0.25399,-1.17101 0.25399,-1.72901 0,-0.57899 -0.088,-1.162 -0.26898,-1.75099 -0.18201,-0.58799 -0.423,-1.09401 -0.72699,-1.518 -0.57901,-0.79601 -1.28802,-1.19499 -2.12802,-1.19499 -0.797,0 -1.487,0.41999 -2.063995,1.25898 -0.585998,0.84001 -0.878997,1.86501 -0.878997,3.07801"
   clip-path="url(#SVGID_2_)"
   id="path60" />
				</g>
			</g>
		</g>
</svg>
